<!-- icon666.com - MILLIONS vector ICONS FREE --><svg version="1.1" id="Capa_1" xmlns="http://www.w3.org/2000/svg" xmlns:xlink="http://www.w3.org/1999/xlink" x="0px" y="0px" viewBox="0 0 407.552 407.552" style="enable-background:new 0 0 407.552 407.552;" xml:space="preserve"><g><circle style="" cx="203.776" cy="203.776" r="203.776" fill="#382B73"></circle><circle style="" cx="203.776" cy="203.776" r="176.282" fill="#473080"></circle><path style="" d="M349.952,176.486l-21.453-21.453l0,0l-50.944-50.944c-1.024-1.024-2.611-1.024-3.635,0l-31.59,31.59 c-1.024,1.024-1.024,2.611,0,3.635l4.352,4.352l-21.76,21.709h-24.883c-3.174,0-6.246,1.28-8.499,3.533l-2.15,2.15l-0.922-0.922 c-0.563-0.563-1.28-1.024-1.997-1.28l-10.394-3.686l-16.384-16.384l5.478-5.478c1.024-1.024,1.024-2.611,0-3.635l-31.59-31.59 c-1.024-1.024-2.611-1.024-3.635,0l-43.878,43.878L57.549,180.48c-1.024,1.024-1.024,2.611,0,3.635l31.59,31.59 c1.024,1.024,2.611,1.024,3.635,0l5.427-5.427l20.531,20.531l10.342,13.722l3.123,3.123c-0.256,0.205-0.563,0.461-0.819,0.717 l-9.472,9.472l0,0l-1.946,1.946c-2.611,2.611-2.611,6.861,0,9.421l1.946,1.946l0,0l0,0l1.946,1.946 c2.611,2.611,6.861,2.611,9.421,0l4.71-4.71l0,0l6.707-6.707c0.256-0.256,0.512-0.512,0.717-0.819l3.174,3.174l-7.885,7.885 l-5.171,5.171l-1.69,1.69c-2.765,2.765-2.765,7.219,0,9.984l1.69,1.69l0,0l0,0l0,0l1.69,1.69c2.765,2.765,7.219,2.765,9.984,0 l1.69-1.69l0,0l3.891-3.891l1.28-1.28l0,0l7.885-7.885l3.072,3.072l-7.27,7.27l0,0l-7.322,7.322c-2.816,2.816-2.816,7.373,0,10.24 l3.072,3.072c2.816,2.816,7.373,2.816,10.24,0l1.536-1.536l5.786-5.786l7.27-7.27l3.584,3.584c-1.075,0.461-2.099,1.126-2.97,1.997 l-8.397,8.397l0,0l-1.485,1.485c-2.867,2.867-2.867,7.526,0,10.342l1.485,1.485l0,0l1.485,1.485c2.867,2.867,7.526,2.867,10.342,0 l1.485-1.485l3.738-3.738l4.659-4.659c0.87-0.87,1.536-1.894,1.997-2.97l10.035,10.035l0,0l2.56,2.56 c2.355,2.355,6.195,2.355,8.55,0l4.71-4.71c2.355-2.355,2.355-6.195,0-8.55l-2.355-2.355l0,0l-7.117-7.168l0,0 c-0.102-0.102-0.205-0.256-0.307-0.41l-0.051-0.051c-0.102-0.154-0.154-0.256-0.256-0.41c0,0,0-0.051-0.051-0.051 c-0.154-0.307-0.256-0.614-0.256-0.973v-0.051c0-0.154-0.051-0.358,0-0.512c0,0,0,0,0-0.051c0-0.512,0.154-1.075,0.461-1.536l0,0 c0.154-0.256,0.307-0.461,0.512-0.717c1.28-1.28,3.43-1.28,4.71,0l5.581,5.581l0,0l6.707,6.707c2.867,2.867,7.475,2.867,10.291,0 l3.021-3.021c2.867-2.867,2.867-7.475,0-10.291l-1.485-1.485l0,0l-9.421-9.421c-1.126-1.126-1.126-3.021,0-4.147 c1.126-1.126,3.021-1.126,4.147,0l4.557,4.557l0,0l10.803,10.803c2.918,2.918,7.68,2.918,10.598,0l2.714-2.714 c2.918-2.918,2.918-7.68,0-10.598l-1.382-1.382l0,0l-11.418-11.418c-0.973-0.973-0.973-2.56,0-3.533l0,0 c0.973-0.973,2.56-0.973,3.533,0c0.614,0.614,1.229,1.229,1.894,1.894l0,0l10.24,10.24l0,0l0,0l1.331,1.331 c2.97,2.97,7.731,2.97,10.701,0l1.331-1.331l0,0l0,0l1.331-1.331c2.97-2.97,2.97-7.731,0-10.701l-11.571-11.571l0,0l-7.936-7.936 c-0.051-0.051-0.154-0.154-0.256-0.205l0.051-0.051l9.83,9.83l21.146-32.666l16.742-16.742l0,0l0,0l6.4,6.4 c1.024,1.024,2.611,1.024,3.635,0l31.59-31.59C350.976,179.098,350.976,177.459,349.952,176.486z" fill="#382B73"></path><g><path style="" d="M279.04,253.082l-18.227-18.227c-0.051-0.051-0.154-0.154-0.256-0.205l1.331-1.331l-73.37-73.421 c-0.563-0.563-1.28-1.024-1.997-1.28l-10.394-3.686l-16.947-16.947l-61.594,61.542l21.094,21.094l10.342,13.722l64.922,64.922l0,0 l10.291,10.291c3.738,3.738,9.933,3.84,13.619,0.051c3.533-3.686,3.482-9.523-0.102-13.158l-7.117-7.168 c-1.28-1.28-1.28-3.43,0-4.71l0,0c1.28-1.28,3.43-1.28,4.71,0l10.752,10.752c3.686,3.686,9.626,3.686,13.312,0l0,0 c3.686-3.686,3.686-9.626,0-13.312l-9.421-9.421c-1.126-1.126-1.126-3.021,0-4.147l0,0c1.126-1.126,3.021-1.126,4.147,0 l13.978,13.978c3.686,3.686,9.626,3.686,13.312,0l0,0c3.686-3.686,3.686-9.626,0-13.312L250.01,257.69 c-0.973-0.973-0.973-2.56,0-3.533l0,0c0.973-0.973,2.56-0.973,3.533,0c4.608,4.608,12.134,12.186,12.134,12.186 c3.686,3.686,9.626,3.686,13.312,0l0,0C282.675,262.707,282.675,256.768,279.04,253.082z" fill="#FFC733"></path><path style="" d="M267.008,267.725l-11.571-11.571l13.312-13.312l11.571,11.571c2.97,2.97,2.97,7.731,0,10.701 l-2.611,2.611C274.739,270.643,269.978,270.643,267.008,267.725z" fill="#E7AD27"></path><path style="" d="M249.498,283.853l-10.803-10.803l13.312-13.312l10.803,10.803c2.918,2.918,2.918,7.68,0,10.598 l-2.714,2.714C257.178,286.771,252.416,286.771,249.498,283.853z" fill="#E7AD27"></path><path style="" d="M227.584,296.858l-6.707-6.707l13.312-13.312l6.707,6.707c2.867,2.867,2.867,7.475,0,10.291 l-3.021,3.021C235.059,299.725,230.451,299.725,227.584,296.858z" fill="#E7AD27"></path><path style="" d="M309.504,193.587l-61.491-61.491l-23.04,23.04H200.09c-3.174,0-6.246,1.28-8.499,3.533 l-30.976,30.976c-3.84,3.84-4.608,9.882-1.587,14.387c4.147,6.144,12.544,6.758,17.51,1.792l27.648-27.648l66.304,66.304 l21.146-32.666l17.203-17.203l-0.154-0.154L309.504,193.587z" fill="#FEDE3A"></path><path style="fill: rgb(30, 139, 179);" d="M165.171,133.12l-72.397,72.397c-1.024,1.024-2.611,1.024-3.635,0l-31.59-31.59 c-1.024-1.024-1.024-2.611,0-3.635l72.397-72.397c1.024-1.024,2.611-1.024,3.635,0l31.59,31.59 C166.195,130.509,166.195,132.096,165.171,133.12z" fill="#1CAEE4"></path><path style="" d="M121.293,176.998l-28.518,28.518c-1.024,1.024-2.611,1.024-3.635,0l-31.59-31.59 c-1.024-1.024-1.024-2.611,0-3.635l28.518-28.518L121.293,176.998z" fill="#177BC0"></path><circle style="" cx="84.787" cy="175.258" r="8.09" fill="#FEDE3A"></circle><path style="" d="M84.787,179.763c-3.84,0-7.066-2.714-7.885-6.298c-0.154,0.563-0.205,1.178-0.205,1.792 c0,4.454,3.635,8.09,8.09,8.09c4.454,0,8.09-3.635,8.09-8.09c0-0.614-0.051-1.229-0.205-1.792 C91.802,177.101,88.627,179.763,84.787,179.763z" fill="#FFC733"></path><path style="fill: rgb(30, 139, 179);" d="M314.778,201.421l-72.397-72.397c-1.024-1.024-1.024-2.611,0-3.635l31.59-31.59 c1.024-1.024,2.611-1.024,3.635,0l72.397,72.397c1.024,1.024,1.024,2.611,0,3.635l-31.59,31.59 C317.389,202.445,315.802,202.445,314.778,201.421z" fill="#1CAEE4"></path><path style="" d="M314.778,201.421l-21.453-21.453l35.174-35.174l21.453,21.453c1.024,1.024,1.024,2.611,0,3.635 l-31.59,31.59C317.389,202.445,315.802,202.445,314.778,201.421z" fill="#177BC0"></path><polygon style="" points="293.325,179.968 249.651,223.642 270.438,244.48 291.635,211.763 308.378,195.021 " fill="#E7AD27"></polygon><path style="" d="M200.499,165.99L200.499,165.99l-39.936,39.936c4.454,4.352,11.571,4.301,15.974-0.102 l27.648-27.648l21.965,21.965l0,0v-8.55C226.099,177.459,214.682,165.99,200.499,165.99z" fill="#E7AD27"></path><path style="" d="M210.637,289.28c-1.075-1.075-1.28-2.714-0.512-3.994l-71.27-71.27v-19.507l-17.562-17.562 l-0.819-0.358l-22.886,22.886l21.094,21.094l10.342,13.722l64.922,64.922l0,0l10.291,10.291c3.738,3.738,9.933,3.84,13.619,0.051 c3.533-3.686,3.482-9.523-0.102-13.158L210.637,289.28z" fill="#E7AD27"></path><g><path style="" d="M144.691,251.494l-9.472,9.472c-3.686,3.686-9.626,3.686-13.312,0l0,0 c-3.686-3.686-3.686-9.626,0-13.312l9.472-9.472c3.686-3.686,9.626-3.686,13.312,0l0,0 C148.378,241.869,148.378,247.808,144.691,251.494z" fill="#FEDE3A"></path><path style="" d="M169.216,259.891l-20.326,20.326c-3.686,3.686-9.626,3.686-13.312,0l0,0 c-3.686-3.686-3.686-9.626,0-13.312l20.326-20.326c3.686-3.686,9.626-3.686,13.312,0l0,0 C172.851,250.266,172.851,256.256,169.216,259.891z" fill="#FEDE3A"></path><path style="" d="M154.061,275.046l-6.81,6.81c-2.765,2.765-7.219,2.765-9.984,0l-3.328-3.328 c-2.765-2.765-2.765-7.219,0-9.984l6.81-6.81L154.061,275.046z" fill="#E7AD27"></path><path style="" d="M181.299,280.627l-16.026,16.026c-3.686,3.686-9.626,3.686-13.312,0l0,0 c-3.686-3.686-3.686-9.626,0-13.312l16.026-16.026c3.686-3.686,9.626-3.686,13.312,0l0,0 C184.934,271.002,184.934,276.941,181.299,280.627z" fill="#FEDE3A"></path><path style="" d="M171.059,290.867l-7.322,7.322c-2.816,2.816-7.373,2.816-10.24,0l-3.072-3.072 c-2.816-2.816-2.816-7.373,0-10.24l7.322-7.322L171.059,290.867z" fill="#E7AD27"></path><path style="" d="M192.256,302.49l-8.397,8.397c-3.686,3.686-9.626,3.686-13.312,0l0,0 c-3.686-3.686-3.686-9.626,0-13.312l8.397-8.397c3.686-3.686,9.626-3.686,13.312,0l0,0 C195.891,292.864,195.891,298.803,192.256,302.49z" fill="#FEDE3A"></path><path style="" d="M187.546,307.149l-5.171,5.171c-2.867,2.867-7.526,2.867-10.342,0l-2.918-2.918 c-2.867-2.867-2.867-7.526,0-10.342l5.171-5.171L187.546,307.149z" fill="#E7AD27"></path></g><path style="" d="M138.035,258.202l-4.71,4.71c-2.611,2.611-6.861,2.611-9.421,0l-3.84-3.84 c-2.611-2.611-2.611-6.861,0-9.421l4.71-4.71L138.035,258.202z" fill="#E7AD27"></path><path style="" d="M206.797,312.064l-4.301-4.301l13.312-13.312l4.301,4.301c2.355,2.355,2.355,6.195,0,8.55 l-4.71,4.71C212.992,314.47,209.152,314.47,206.797,312.064z" fill="#E7AD27"></path></g></g></svg>